# xmcd CD database file
#
# Track frame offsets:
#	150
#	18385
#	35070
#	51865
#	69082
#	86542
#	102867
#	113935
#	134230
#	174432
#
# Disc length: 2373 seconds
#
# Revision: 1
# Processed by: cddbd v1.5.2PL0 Copyright (c) Steve Scherf et al.
# Submitted via: CDex 1.70beta2
#
DISCID=8509430a
DTITLE=Sapho - La Traversee Du Desir
DYEAR=1991
DGENRE=Pop
TTITLE0=De Quoi As Tu Peur ?
TTITLE1=Moonlight
TTITLE2=Compliments
TTITLE3=Ala...
TTITLE4=Eros Et Thanatos
TTITLE5=Harry
TTITLE6=Elegance Animale
TTITLE7=Airport
TTITLE8=El Altal
TTITLE9=Parlez Moi D'Amour
EXTD=YEAR: 1991
EXTT0=
EXTT1=
EXTT2=
EXTT3=
EXTT4=
EXTT5=
EXTT6=
EXTT7=
EXTT8=
EXTT9=
PLAYORDER=
